<svg width="31" height="37" viewBox="0 0 31 37" fill="none" xmlns="http://www.w3.org/2000/svg">
<path d="M25.5732 0.0555114C26.9467 -0.196172 28.6038 0.436312 29.5048 1.37973C29.5295 1.40343 29.5547 1.42776 29.5791 1.452C30.9193 2.60965 31.3491 5.01564 30.707 6.53207C30.1506 8.09827 29.2481 9.22865 28.3271 10.2782C26.4545 12.3444 24.3588 13.9859 22.2304 15.5506C17.9793 18.658 13.4054 21.2883 9.1523 24.0223C9.11225 24.049 9.07247 24.0756 9.03414 24.1014C6.52689 25.8025 3.99112 27.9285 3.21383 30.2733C2.86504 31.4139 3.10789 32.3162 3.92281 32.9852C4.72649 33.6526 6.06818 33.9114 7.03902 33.5868C9.29655 32.883 11.1433 30.3198 12.5966 27.7723C12.6433 27.6898 12.6909 27.6043 12.7392 27.5174C14.9636 23.6265 17.4423 17.6319 23.9033 17.0663C23.9509 17.0638 23.9987 17.0612 24.0459 17.0594C25.2092 17.0242 26.5807 17.1381 27.8593 17.9901C29.1637 18.8412 29.8185 20.4081 29.9345 21.662C30.1263 23.8709 29.5717 25.7347 28.8134 27.4676C28.7612 27.1175 28.5379 26.8005 28.1904 26.6463L26.8105 26.034C26.5253 25.9075 26.2143 25.9165 25.9492 26.0321C26.5275 24.6645 26.8904 23.2025 26.7675 22.0184C26.5835 20.6073 25.8996 20.2162 24.1591 20.2254C24.1271 20.2265 24.0943 20.2287 24.0615 20.2303C20.2054 20.3639 17.7028 24.8613 15.4668 29.0379C15.4149 29.1305 15.3629 29.2221 15.3115 29.3123C13.6572 32.0592 11.7936 35.203 7.9775 36.5331C5.87016 37.167 3.68138 36.7219 1.97847 35.37C0.189772 34.0501 -0.42168 31.2564 0.289997 29.3651C1.69981 25.5185 4.62433 23.5034 7.34664 21.5848C7.3893 21.5563 7.43353 21.5279 7.4775 21.4989C11.9435 18.6519 16.3567 16.1309 20.4775 13.1385C22.5207 11.651 24.5166 10.0756 26.1298 8.30453C27.7604 6.52234 28.7643 4.53453 27.5175 3.51254C27.5048 3.49971 27.492 3.48674 27.4795 3.47446C25.9616 1.47549 22.1025 5.00515 19.2636 7.42758C17.726 8.72803 16.1571 10.0723 14.2509 11.1366C12.4508 12.1938 9.62905 12.9084 7.48043 11.5096C7.47991 11.5092 7.47816 11.5086 7.47652 11.5077C6.42663 11.0029 5.58791 9.74569 5.37886 8.66489C4.91075 6.39136 5.56574 4.4014 6.15133 2.48227C5.99061 4.47488 6.142 6.57261 6.89937 8.14926C7.2979 8.93079 7.72095 9.38483 8.47261 9.72739C8.48144 9.73215 8.49114 9.73754 8.50093 9.74301C11.3638 11.3173 14.7424 8.02363 17.5361 5.48422C19.0008 4.13984 20.4481 2.70941 22.2617 1.47055C23.1783 0.86787 24.209 0.262999 25.5732 0.0555114Z" fill="#A1A3A9"/>
<path d="M25.3055 26.9998C25.5451 26.4598 26.177 26.2162 26.717 26.4558L27.8937 26.9778C28.4337 27.2174 28.6772 27.8493 28.4377 28.3893L26.8111 32.0558C26.6314 32.4608 26.1575 32.6435 25.7525 32.4638L24.0869 31.7249C23.6819 31.5453 23.4993 31.0713 23.6789 30.6663L25.3055 26.9998Z" fill="#A8A9B1"/>
<path d="M24.0504 35.1608L23.8297 35.6013C23.7575 35.7446 23.6362 35.8574 23.4879 35.9186L22.7535 36.2214C22.7047 36.2414 22.6499 36.2102 22.6431 36.1579L22.5494 35.4255C22.5325 35.2936 22.5552 35.1596 22.6148 35.0407L22.8609 34.5495L24.0504 35.1608ZM24.5728 34.1188L24.1705 34.9216L22.981 34.3112L23.3804 33.5163L24.5728 34.1188ZM25.2789 32.7175L24.814 33.6413L23.6207 33.0378L24.0845 32.1169L25.2789 32.7175Z" fill="#9FA0A7"/>
<circle cx="26" cy="5" r="5" fill="url(#paint0_radial_43_319)"/>
<circle cx="6" cy="31" r="6" fill="url(#paint1_radial_43_319)"/>
<defs>
<radialGradient id="paint0_radial_43_319" cx="0" cy="0" r="1" gradientUnits="userSpaceOnUse" gradientTransform="translate(26 5) rotate(90) scale(5)">
<stop/>
<stop offset="1" stop-opacity="0"/>
</radialGradient>
<radialGradient id="paint1_radial_43_319" cx="0" cy="0" r="1" gradientUnits="userSpaceOnUse" gradientTransform="translate(6 31) rotate(90) scale(6)">
<stop/>
<stop offset="1" stop-opacity="0"/>
</radialGradient>
</defs>
</svg>
