<svg width="31" height="37" viewBox="0 0 31 37" fill="none" xmlns="http://www.w3.org/2000/svg">
<path d="M24.7641 2.21248C26.0279 2.23078 27.2507 2.91419 28.0161 3.70174C28.3303 4.01665 28.5801 4.32526 28.8178 4.73983C29.7473 6.29732 29.3112 8.22522 28.6635 9.41366C28.014 10.659 27.1717 11.6399 26.3032 12.5474C24.5461 14.3487 22.6377 15.8196 20.6879 17.2271C16.8077 20.0228 12.6117 22.4308 8.77681 24.9117C8.63965 25.004 8.50472 25.0958 8.37349 25.1871C6.13077 26.7542 3.85675 28.7619 3.27778 30.8629C3.01727 31.8902 3.28417 32.6875 4.05317 33.2838C4.81134 33.8741 6.02535 34.0924 6.90962 33.7974C9.0243 33.1379 10.7535 30.7362 12.1147 28.3502C12.2056 28.1893 12.3006 28.0177 12.393 27.8492C14.429 24.2497 16.8004 18.8222 22.7036 18.3238C22.8048 18.3186 22.9053 18.315 23.0043 18.3131C24.0827 18.2985 25.3763 18.4398 26.5375 19.2789C27.7209 20.1208 28.2661 21.5643 28.3618 22.7164C28.5136 24.7468 28.003 26.4671 27.3032 28.067C27.2546 27.7387 27.045 27.441 26.7192 27.2965L25.4262 26.7232C25.1579 26.6042 24.8657 26.6136 24.6166 26.7232C25.1511 25.461 25.4916 24.115 25.392 23.0103C25.2312 21.6792 24.6407 21.3027 23.0571 21.2799C22.9909 21.2809 22.9221 21.2833 22.852 21.2867C19.3324 21.402 16.9804 25.4534 14.9545 29.2594C14.8578 29.4345 14.7568 29.6168 14.6567 29.7926C13.1073 32.3652 11.3613 35.3097 7.78755 36.5553C5.868 37.1346 3.87944 36.7505 2.30122 35.5709C0.660839 34.4301 -0.072102 31.95 0.502392 30.1441C1.63344 26.549 4.31513 24.6369 6.75727 22.856C6.90108 22.7567 7.04831 22.6571 7.1977 22.5572C11.2521 19.956 15.2899 17.6575 19.0639 14.9566C20.9423 13.6125 22.765 12.2043 24.3188 10.6217C25.8471 9.11269 27.1291 7.02224 26.4409 6.07967C26.3528 5.92361 26.2495 5.78647 26.0922 5.62557C24.5594 3.59501 21.2901 6.17577 18.6313 8.27205C15.8488 10.3624 12.9363 13.1336 8.71724 13.2974C8.36919 13.2975 8.02484 13.2551 7.68306 13.1754C6.93693 13.01 6.22962 12.5879 5.75044 12.0064C5.37992 11.5633 5.14774 11.0464 5.01704 10.5387C4.65024 9.01968 5.11647 7.6007 5.71821 6.37069C5.34323 7.68051 5.17293 9.15588 5.74458 10.2701C5.93556 10.6403 6.22677 10.9316 6.55317 11.1129C6.98198 11.3526 7.45435 11.4158 7.91743 11.4078C8.17708 11.4078 8.42762 11.3984 8.68208 11.3873C11.747 11.1957 14.4504 8.67046 17.1069 6.41756C18.4622 5.26917 19.8135 4.048 21.5737 3.07869C22.4581 2.61178 23.5004 2.17933 24.7641 2.21248Z" fill="url(#paint0_linear_53_146)"/>
<path d="M24.0176 27.6277C24.2419 27.1219 24.8338 26.8938 25.3396 27.1182L26.4417 27.6071C26.9474 27.8315 27.1755 28.4233 26.9512 28.9291L25.4277 32.3631C25.2595 32.7425 24.8155 32.9135 24.4362 32.7453L22.8763 32.0532C22.4969 31.8849 22.3259 31.441 22.4941 31.0617L24.0176 27.6277Z" fill="url(#paint1_linear_53_146)"/>
<path d="M22.841 35.272L22.635 35.6831C22.5674 35.8175 22.4536 35.9235 22.3146 35.981L21.6271 36.2651C21.5814 36.284 21.5299 36.2537 21.5236 36.2046L21.4357 35.519C21.4199 35.3954 21.4413 35.2701 21.4973 35.1587L21.7268 34.6997L22.841 35.272ZM23.3303 34.2964L22.9533 35.0474L21.84 34.4761L22.2141 33.731L23.3303 34.2964ZM23.9924 32.9829L23.5559 33.8481L22.4387 33.2837L22.8732 32.4204L23.9924 32.9829Z" fill="white"/>
<ellipse cx="25.4271" cy="6.20364" rx="5.30501" ry="5.20364" fill="url(#paint2_radial_53_146)"/>
<ellipse cx="6.42708" cy="31.2036" rx="5.30501" ry="5.20364" fill="url(#paint3_radial_53_146)"/>
<g filter="url(#filter0_f_53_146)">
<path d="M5.81517 6.41992C5.71547 6.7711 5.62563 7.08432 5.54635 7.36606C5.67425 6.93948 5.77395 6.60666 5.81517 6.41992Z" fill="url(#paint4_radial_53_146)"/>
</g>
<g filter="url(#filter1_f_53_146)">
<path d="M26.1188 12.4385C26.3586 12.254 26.5796 12.0714 26.7968 11.8763C28.4752 10.3928 29.8036 8.09686 29.2859 5.70972C28.6991 2.36547 24.3396 1.29185 21.8618 3.019C21.5978 3.17032 21.3684 3.32138 21.1221 3.5C21.3829 3.34328 21.6241 3.21453 21.8966 3.08577C24.5203 1.62603 28.3249 2.81676 28.8531 5.80503C29.3259 7.9596 28.2397 10.1625 26.7295 11.8086C26.535 12.0232 26.3365 12.2284 26.1188 12.4385Z" fill="#D6D6D6"/>
</g>
<g filter="url(#filter2_f_53_146)">
<path d="M1.04151 33.8915C1.04151 33.8915 1.04151 33.8915 1.04151 33.8915C0.906968 33.5895 0.794904 33.2847 0.707177 32.9706C-0.0578536 30.466 1.40001 28.0526 3.10271 26.2893C5.40769 23.9018 8.22462 22.0373 11.0578 20.2394C11.3306 20.0679 11.6095 19.8947 11.8944 19.7197C11.8944 19.7197 11.8944 19.7197 11.8944 19.7197C11.5966 19.8718 11.3052 20.0233 11.0201 20.1742C8.06154 21.7629 5.14958 23.5337 2.78092 25.9846C1.02738 27.7653 -0.417327 30.5171 0.616461 33.0005C0.734282 33.3103 0.876882 33.6048 1.04151 33.8915Z" fill="#FDFDFD"/>
</g>
<g filter="url(#filter3_f_53_146)">
<path d="M23.5828 32.3466C23.522 32.3075 23.4655 32.2724 23.4038 32.2362C23.1749 32.0971 22.915 31.9881 22.7142 31.8441C22.5026 31.7065 22.5373 31.467 22.606 31.2166C22.8077 30.5595 23.1057 29.9035 23.3425 29.2336C23.3659 29.1691 23.3898 29.103 23.4142 29.0352C23.3789 29.098 23.3446 29.1594 23.3112 29.2193C22.9714 29.8462 22.6259 30.4641 22.4105 31.1629C22.3751 31.2964 22.343 31.4399 22.3617 31.5969C22.3751 31.7581 22.4968 31.9093 22.6227 31.9791C22.8756 32.1228 23.1326 32.1833 23.3855 32.2758C23.4525 32.2994 23.5151 32.3213 23.5828 32.3466Z" fill="white"/>
</g>
<g filter="url(#filter4_n_53_146)">
<path d="M10.2523 2.9064C10.1327 3.1389 10.0772 3.52393 10.0552 3.82622C10.0423 4.00314 10.1819 4.15151 10.3552 4.11325C10.663 4.04527 11.0527 3.84396 11.2687 3.36333C11.479 2.89567 11.3855 2.47346 11.2418 2.19091C11.1559 2.022 10.9367 2.01899 10.8104 2.16025C10.6086 2.38601 10.3684 2.68077 10.2523 2.9064Z" fill="#A2A1A6"/>
</g>
<path d="M7.88601 1.25812C6.35398 1.76496 5.07209 3.6156 4.70506 7.98575C4.69862 8.06239 4.72273 8.14011 4.7772 8.1944C4.88124 8.2981 5.06491 8.45679 5.21278 8.45462C5.39026 8.45201 5.61911 8.23634 5.73085 8.11878C5.77576 8.07153 5.79929 8.00759 5.80195 7.94246C5.92736 4.87058 7.25208 3.74562 7.9282 3.61814C8.70799 3.47111 8.89139 3.98458 9.51416 4.19457C10.1369 4.40457 9.61893 3.84327 10.0162 2.95945C10.4136 2.07564 11.2227 1.77539 10.6619 1.52326C10.0211 1.23523 8.91988 0.916088 7.88601 1.25812Z" fill="#DCDCDC"/>
<defs>
<filter id="filter0_f_53_146" x="4.5322" y="5.40623" width="2.29692" height="2.97344" filterUnits="userSpaceOnUse" color-interpolation-filters="sRGB">
<feFlood flood-opacity="0" result="BackgroundImageFix"/>
<feBlend mode="normal" in="SourceGraphic" in2="BackgroundImageFix" result="shape"/>
<feGaussianBlur stdDeviation="0.506848" result="effect1_foregroundBlur_53_146"/>
</filter>
<filter id="filter1_f_53_146" x="20.8518" y="1.93354" width="8.81798" height="10.7753" filterUnits="userSpaceOnUse" color-interpolation-filters="sRGB">
<feFlood flood-opacity="0" result="BackgroundImageFix"/>
<feBlend mode="normal" in="SourceGraphic" in2="BackgroundImageFix" result="shape"/>
<feGaussianBlur stdDeviation="0.135159" result="effect1_foregroundBlur_53_146"/>
</filter>
<filter id="filter2_f_53_146" x="0.000189066" y="19.4494" width="12.1647" height="14.7125" filterUnits="userSpaceOnUse" color-interpolation-filters="sRGB">
<feFlood flood-opacity="0" result="BackgroundImageFix"/>
<feBlend mode="normal" in="SourceGraphic" in2="BackgroundImageFix" result="shape"/>
<feGaussianBlur stdDeviation="0.135159" result="effect1_foregroundBlur_53_146"/>
</filter>
<filter id="filter3_f_53_146" x="22.2213" y="28.9" width="1.49688" height="3.58184" filterUnits="userSpaceOnUse" color-interpolation-filters="sRGB">
<feFlood flood-opacity="0" result="BackgroundImageFix"/>
<feBlend mode="normal" in="SourceGraphic" in2="BackgroundImageFix" result="shape"/>
<feGaussianBlur stdDeviation="0.0675797" result="effect1_foregroundBlur_53_146"/>
</filter>
<filter id="filter4_n_53_146" x="10.0547" y="2.05884" width="1.33691" height="2.06055" filterUnits="userSpaceOnUse" color-interpolation-filters="sRGB">
<feFlood flood-opacity="0" result="BackgroundImageFix"/>
<feBlend mode="normal" in="SourceGraphic" in2="BackgroundImageFix" result="shape"/>
<feTurbulence type="fractalNoise" baseFrequency="25.799522399902344 25.799522399902344" stitchTiles="stitch" numOctaves="3" result="noise" seed="5542" />
<feColorMatrix in="noise" type="luminanceToAlpha" result="alphaNoise" />
<feComponentTransfer in="alphaNoise" result="coloredNoise1">
<feFuncA type="discrete" tableValues="1 1 1 1 1 1 1 1 1 1 1 1 1 1 1 1 1 1 1 1 1 1 1 1 1 1 1 1 1 1 1 1 1 1 1 1 1 1 1 1 1 1 1 1 1 1 1 1 1 1 1 0 0 0 0 0 0 0 0 0 0 0 0 0 0 0 0 0 0 0 0 0 0 0 0 0 0 0 0 0 0 0 0 0 0 0 0 0 0 0 0 0 0 0 0 0 0 0 0 0 "/>
</feComponentTransfer>
<feComposite operator="in" in2="shape" in="coloredNoise1" result="noise1Clipped" />
<feFlood flood-color="rgba(17, 17, 31, 0.3)" result="color1Flood" />
<feComposite operator="in" in2="noise1Clipped" in="color1Flood" result="color1" />
<feMerge result="effect1_noise_53_146">
<feMergeNode in="shape" />
<feMergeNode in="color1" />
</feMerge>
</filter>
<linearGradient id="paint0_linear_53_146" x1="15.6221" y1="5" x2="18.6221" y2="26" gradientUnits="userSpaceOnUse">
<stop stop-color="#A1A3A9"/>
<stop offset="0.490385" stop-color="white"/>
<stop offset="1" stop-color="#A1A3A9"/>
</linearGradient>
<linearGradient id="paint1_linear_53_146" x1="25.1221" y1="28.5" x2="23.6221" y2="32.5" gradientUnits="userSpaceOnUse">
<stop stop-color="#A0A2A8"/>
<stop offset="1" stop-color="white"/>
</linearGradient>
<radialGradient id="paint2_radial_53_146" cx="0" cy="0" r="1" gradientUnits="userSpaceOnUse" gradientTransform="translate(25.4271 6.20364) rotate(90) scale(5.20364 5.22583)">
<stop/>
<stop offset="1" stop-opacity="0"/>
</radialGradient>
<radialGradient id="paint3_radial_53_146" cx="0" cy="0" r="1" gradientUnits="userSpaceOnUse" gradientTransform="translate(6.42708 31.2036) rotate(90) scale(5.20364 5.22583)">
<stop/>
<stop offset="1" stop-opacity="0"/>
</radialGradient>
<radialGradient id="paint4_radial_53_146" cx="0" cy="0" r="1" gradientUnits="userSpaceOnUse" gradientTransform="translate(8.12886 12.5867) rotate(9.46233) scale(5.39106 3.64407)">
<stop stop-color="white"/>
<stop offset="1" stop-color="#F5F5F5"/>
</radialGradient>
</defs>
</svg>
