<svg width="69" height="55" viewBox="0 0 69 55" fill="none" xmlns="http://www.w3.org/2000/svg">
<path d="M11.1611 0C16.6004 1.75687e-05 21.128 3.89158 22.1182 9.04199L28.3457 1.39746C28.5444 1.00204 28.8417 0.66522 29.208 0.421875C29.2608 0.384745 29.3154 0.35124 29.3721 0.322266C29.7374 0.117671 30.158 5.07676e-05 30.6064 0H45.5645C46.9625 0 48.0966 1.13327 48.0967 2.53125V20.5322C48.0995 20.6253 48.1005 20.7232 48.0967 20.8262V21.3877C48.236 25.854 52.1586 26.5469 53.9648 26.6943H66.2764C67.6742 26.6944 68.8074 27.8278 68.8076 29.2256V52.4688C68.8075 53.8667 67.6743 54.9999 66.2764 55H51.7783C46.0591 55 41.4229 50.3637 41.4229 44.6445V36.8203L41.4053 36.5635C41.3342 35.185 41.4795 32.4728 40.042 31.6426C38.2771 30.6236 36.9684 32.7547 36.0186 33.71L20.1357 53.2119C19.5232 53.9639 18.7304 54.4826 17.8711 54.7588C17.5452 54.9116 17.1825 55 16.7988 55H2.53125C1.13333 54.9999 7.05401e-05 53.8667 0 52.4688V39.582C0 39.4468 0.00685809 39.3126 0.0195312 39.1807C0.00571267 37.3213 0.613934 35.4459 1.87988 33.8916L9.99121 23.9326H4.14258C1.85495 23.9326 0.000119297 22.0786 0 19.791V4.14258C0 1.85487 1.85487 0 4.14258 0H11.1611Z" fill="url(#paint0_linear_189_28)"/>
<defs>
<linearGradient id="paint0_linear_189_28" x1="39.8117" y1="11.2761" x2="4.9477" y2="51.5481" gradientUnits="userSpaceOnUse">
<stop stop-color="#2FAC98"/>
<stop offset="1" stop-color="#0B887C"/>
</linearGradient>
</defs>
</svg>
