<svg width="24" height="24" viewBox="0 0 24 24" fill="none" xmlns="http://www.w3.org/2000/svg">
<path d="M6.64941 3.25C5.13063 3.25 3.89941 4.48122 3.89941 6V18C3.89941 19.5188 5.13063 20.75 6.64941 20.75H8.3637C9.88248 20.75 11.1137 19.5188 11.1137 18V6C11.1137 4.48122 9.88248 3.25 8.3637 3.25H6.64941Z" fill="#F3F3F7"/>
<path d="M15.6494 3.25C14.1306 3.25 12.8994 4.48122 12.8994 6V18C12.8994 19.5188 14.1306 20.75 15.6494 20.75H17.3637C18.8825 20.75 20.1137 19.5188 20.1137 18V6C20.1137 4.48122 18.8825 3.25 17.3637 3.25H15.6494Z" fill="#F3F3F7"/>
</svg>
